<?xml version="1.0" encoding="UTF-8"?>
<mxfile host="app.diagrams.net" agent="Mozilla/5.0" version="24.7.8">
  <diagram name="Roblox 3D Graph Architecture" id="architecture-main">
    <mxGraphModel dx="1434" dy="795" grid="1" gridSize="10" guides="1" tooltips="1" connect="1" arrows="1" fold="1" page="1" pageScale="1" pageWidth="1654" pageHeight="1169" math="0" shadow="0">
      <root>
        <mxCell id="0" />
        <mxCell id="1" parent="0" />
        
        <!-- Title -->
        <mxCell id="title" value="Roblox 3D Graph Visualization - System Architecture" style="text;html=1;align=center;verticalAlign=middle;fontStyle=1;fontSize=20;" vertex="1" parent="1">
          <mxGeometry x="600" y="20" width="454" height="30" as="geometry" />
        </mxCell>
        
        <!-- Client Layer -->
        <mxCell id="client-layer" value="Client Layer (17%)" style="swimlane;horizontal=1;startSize=30;fillColor=#dae8fc;strokeColor=#6c8ebf;" vertex="1" parent="1">
          <mxGeometry x="80" y="80" width="480" height="400" as="geometry" />
        </mxCell>
        
        <mxCell id="main-client" value="main.client.ts" style="rounded=1;whiteSpace=wrap;html=1;fillColor=#fff2cc;strokeColor=#d6b656;" vertex="1" parent="client-layer">
          <mxGeometry x="20" y="50" width="120" height="40" as="geometry" />
        </mxCell>
        
        <mxCell id="client-controllers" value="Controllers" style="swimlane;horizontal=1;startSize=25;" vertex="1" parent="client-layer">
          <mxGeometry x="20" y="120" width="200" height="120" as="geometry" />
        </mxCell>
        
        <mxCell id="player-controller" value="PlayerController" style="rounded=0;whiteSpace=wrap;html=1;" vertex="1" parent="client-controllers">
          <mxGeometry x="10" y="35" width="180" height="30" as="geometry" />
        </mxCell>
        
        <mxCell id="camera-controller" value="CameraController" style="rounded=0;whiteSpace=wrap;html=1;" vertex="1" parent="client-controllers">
          <mxGeometry x="10" y="75" width="180" height="30" as="geometry" />
        </mxCell>
        
        <mxCell id="client-services" value="Services" style="swimlane;horizontal=1;startSize=25;" vertex="1" parent="client-layer">
          <mxGeometry x="250" y="120" width="200" height="250" as="geometry" />
        </mxCell>
        
        <mxCell id="config-gui" value="ConfigGUI" style="rounded=0;whiteSpace=wrap;html=1;" vertex="1" parent="client-services">
          <mxGeometry x="10" y="35" width="180" height="30" as="geometry" />
        </mxCell>
        
        <mxCell id="properties-gui" value="PropertiesGUI*" style="rounded=0;whiteSpace=wrap;html=1;fillColor=#f8cecc;strokeColor=#b85450;" vertex="1" parent="client-services">
          <mxGeometry x="10" y="75" width="180" height="30" as="geometry" />
        </mxCell>
        
        <mxCell id="link-counter" value="LinkTypeCounter" style="rounded=0;whiteSpace=wrap;html=1;" vertex="1" parent="client-services">
          <mxGeometry x="10" y="115" width="180" height="30" as="geometry" />
        </mxCell>
        
        <mxCell id="node-inspector" value="NodePropertiesInspector*" style="rounded=0;whiteSpace=wrap;html=1;fillColor=#f8cecc;strokeColor=#b85450;" vertex="1" parent="client-services">
          <mxGeometry x="10" y="155" width="180" height="30" as="geometry" />
        </mxCell>
        
        <mxCell id="graph-streamer" value="GraphStreamer" style="rounded=0;whiteSpace=wrap;html=1;" vertex="1" parent="client-services">
          <mxGeometry x="10" y="195" width="180" height="30" as="geometry" />
        </mxCell>
        
        <!-- Server Layer -->
        <mxCell id="server-layer" value="Server Layer (7%)" style="swimlane;horizontal=1;startSize=30;fillColor=#d5e8d4;strokeColor=#82b366;" vertex="1" parent="1">
          <mxGeometry x="620" y="80" width="480" height="400" as="geometry" />
        </mxCell>
        
        <mxCell id="main-server" value="main.server.ts" style="rounded=1;whiteSpace=wrap;html=1;fillColor=#fff2cc;strokeColor=#d6b656;" vertex="1" parent="server-layer">
          <mxGeometry x="20" y="50" width="120" height="40" as="geometry" />
        </mxCell>
        
        <mxCell id="server-services" value="Services" style="swimlane;horizontal=1;startSize=25;" vertex="1" parent="server-layer">
          <mxGeometry x="20" y="120" width="200" height="250" as="geometry" />
        </mxCell>
        
        <mxCell id="game-service" value="GameService" style="rounded=0;whiteSpace=wrap;html=1;" vertex="1" parent="server-services">
          <mxGeometry x="10" y="35" width="180" height="30" as="geometry" />
        </mxCell>
        
        <mxCell id="graph-init" value="GraphInitializer" style="rounded=0;whiteSpace=wrap;html=1;" vertex="1" parent="server-services">
          <mxGeometry x="10" y="75" width="180" height="30" as="geometry" />
        </mxCell>
        
        <mxCell id="config-server" value="ConfigGUIServer" style="rounded=0;whiteSpace=wrap;html=1;" vertex="1" parent="server-services">
          <mxGeometry x="10" y="115" width="180" height="30" as="geometry" />
        </mxCell>
        
        <mxCell id="link-server" value="LinkTypeCounterServer" style="rounded=0;whiteSpace=wrap;html=1;" vertex="1" parent="server-services">
          <mxGeometry x="10" y="155" width="180" height="30" as="geometry" />
        </mxCell>
        
        <mxCell id="streamer-server" value="GraphStreamerServer" style="rounded=0;whiteSpace=wrap;html=1;" vertex="1" parent="server-services">
          <mxGeometry x="10" y="195" width="180" height="30" as="geometry" />
        </mxCell>
        
        <!-- RemoteEvent Communication -->
        <mxCell id="remote-events" value="RemoteEvents" style="shape=cylinder3;whiteSpace=wrap;html=1;boundedLbl=1;backgroundOutline=1;size=15;fillColor=#e1d5e7;strokeColor=#9673a6;" vertex="1" parent="1">
          <mxGeometry x="530" y="250" width="120" height="80" as="geometry" />
        </mxCell>
        
        <!-- Shared Layer -->
        <mxCell id="shared-layer" value="Shared Layer (76%)" style="swimlane;horizontal=1;startSize=30;fillColor=#f5f5f5;strokeColor=#666666;" vertex="1" parent="1">
          <mxGeometry x="80" y="520" width="1020" height="600" as="geometry" />
        </mxCell>
        
        <!-- Data Modules -->
        <mxCell id="data-modules" value="Data (40 files)" style="swimlane;horizontal=1;startSize=25;" vertex="1" parent="shared-layer">
          <mxGeometry x="20" y="50" width="200" height="150" as="geometry" />
        </mxCell>
        
        <mxCell id="entity-data" value="Entity Definitions" style="rounded=0;whiteSpace=wrap;html=1;" vertex="1" parent="data-modules">
          <mxGeometry x="10" y="35" width="180" height="30" as="geometry" />
        </mxCell>
        
        <mxCell id="test-data" value="Test Data*" style="rounded=0;whiteSpace=wrap;html=1;fillColor=#f8cecc;strokeColor=#b85450;" vertex="1" parent="data-modules">
          <mxGeometry x="10" y="75" width="180" height="30" as="geometry" />
        </mxCell>
        
        <mxCell id="constants" value="Constants" style="rounded=0;whiteSpace=wrap;html=1;" vertex="1" parent="data-modules">
          <mxGeometry x="10" y="110" width="180" height="30" as="geometry" />
        </mxCell>
        
        <!-- Interfaces -->
        <mxCell id="interfaces" value="Interfaces" style="swimlane;horizontal=1;startSize=25;" vertex="1" parent="shared-layer">
          <mxGeometry x="250" y="50" width="200" height="150" as="geometry" />
        </mxCell>
        
        <mxCell id="hub-interfaces" value="Hub Modules" style="rounded=0;whiteSpace=wrap;html=1;" vertex="1" parent="interfaces">
          <mxGeometry x="10" y="35" width="180" height="30" as="geometry" />
        </mxCell>
        
        <mxCell id="data-interfaces" value="Data Structures" style="rounded=0;whiteSpace=wrap;html=1;" vertex="1" parent="interfaces">
          <mxGeometry x="10" y="75" width="180" height="30" as="geometry" />
        </mxCell>
        
        <mxCell id="config-interfaces" value="Configuration" style="rounded=0;whiteSpace=wrap;html=1;" vertex="1" parent="interfaces">
          <mxGeometry x="10" y="110" width="180" height="30" as="geometry" />
        </mxCell>
        
        <!-- Renderers -->
        <mxCell id="renderers" value="Renderers" style="swimlane;horizontal=1;startSize=25;" vertex="1" parent="shared-layer">
          <mxGeometry x="480" y="50" width="300" height="280" as="geometry" />
        </mxCell>
        
        <mxCell id="unified-renderer" value="UnifiedDataRenderer*" style="rounded=0;whiteSpace=wrap;html=1;fillColor=#f8cecc;strokeColor=#b85450;" vertex="1" parent="renderers">
          <mxGeometry x="10" y="35" width="280" height="30" as="geometry" />
        </mxCell>
        
        <mxCell id="renderer-managers" value="Managers" style="swimlane;horizontal=1;startSize=20;" vertex="1" parent="renderers">
          <mxGeometry x="10" y="80" width="280" height="180" as="geometry" />
        </mxCell>
        
        <mxCell id="lane-manager" value="LaneManager" style="rounded=0;whiteSpace=wrap;html=1;" vertex="1" parent="renderer-managers">
          <mxGeometry x="10" y="30" width="120" height="30" as="geometry" />
        </mxCell>
        
        <mxCell id="platform-manager" value="PlatformShadowManager" style="rounded=0;whiteSpace=wrap;html=1;" vertex="1" parent="renderer-managers">
          <mxGeometry x="150" y="30" width="120" height="30" as="geometry" />
        </mxCell>
        
        <mxCell id="wall-manager" value="WallManager" style="rounded=0;whiteSpace=wrap;html=1;" vertex="1" parent="renderer-managers">
          <mxGeometry x="10" y="70" width="120" height="30" as="geometry" />
        </mxCell>
        
        <mxCell id="y-shadow-manager" value="YParallelShadowManager" style="rounded=0;whiteSpace=wrap;html=1;" vertex="1" parent="renderer-managers">
          <mxGeometry x="150" y="70" width="120" height="30" as="geometry" />
        </mxCell>
        
        <mxCell id="node-renderer" value="NodeRenderer" style="rounded=0;whiteSpace=wrap;html=1;" vertex="1" parent="renderer-managers">
          <mxGeometry x="10" y="110" width="120" height="30" as="geometry" />
        </mxCell>
        
        <mxCell id="update-manager" value="UpdateManager" style="rounded=0;whiteSpace=wrap;html=1;" vertex="1" parent="renderer-managers">
          <mxGeometry x="150" y="110" width="120" height="30" as="geometry" />
        </mxCell>
        
        <!-- Component Makers -->
        <mxCell id="makers" value="Component Makers" style="swimlane;horizontal=1;startSize=25;" vertex="1" parent="shared-layer">
          <mxGeometry x="810" y="50" width="190" height="280" as="geometry" />
        </mxCell>
        
        <mxCell id="hexagon-maker" value="HexagonMaker" style="rounded=0;whiteSpace=wrap;html=1;" vertex="1" parent="makers">
          <mxGeometry x="10" y="35" width="170" height="30" as="geometry" />
        </mxCell>
        
        <mxCell id="label-maker" value="LabelBlockMaker" style="rounded=0;whiteSpace=wrap;html=1;" vertex="1" parent="makers">
          <mxGeometry x="10" y="75" width="170" height="30" as="geometry" />
        </mxCell>
        
        <mxCell id="rope-maker" value="RopeMaker" style="rounded=0;whiteSpace=wrap;html=1;" vertex="1" parent="makers">
          <mxGeometry x="10" y="115" width="170" height="30" as="geometry" />
        </mxCell>
        
        <mxCell id="origin-maker" value="OriginBlockMaker" style="rounded=0;whiteSpace=wrap;html=1;" vertex="1" parent="makers">
          <mxGeometry x="10" y="155" width="170" height="30" as="geometry" />
        </mxCell>
        
        <mxCell id="platform-maker" value="PlatformMaker" style="rounded=0;whiteSpace=wrap;html=1;" vertex="1" parent="makers">
          <mxGeometry x="10" y="195" width="170" height="30" as="geometry" />
        </mxCell>
        
        <mxCell id="sphere-maker" value="SphereMaker*" style="rounded=0;whiteSpace=wrap;html=1;fillColor=#f8cecc;strokeColor=#b85450;" vertex="1" parent="makers">
          <mxGeometry x="10" y="235" width="170" height="30" as="geometry" />
        </mxCell>
        
        <!-- Services -->
        <mxCell id="shared-services" value="Services" style="swimlane;horizontal=1;startSize=25;" vertex="1" parent="shared-layer">
          <mxGeometry x="20" y="220" width="200" height="110" as="geometry" />
        </mxCell>
        
        <mxCell id="base-service" value="BaseService" style="rounded=0;whiteSpace=wrap;html=1;fillColor=#d4e1f5;strokeColor=#6c8ebf;" vertex="1" parent="shared-services">
          <mxGeometry x="10" y="35" width="180" height="30" as="geometry" />
        </mxCell>
        
        <mxCell id="logger-service" value="LoggerService" style="rounded=0;whiteSpace=wrap;html=1;" vertex="1" parent="shared-services">
          <mxGeometry x="10" y="70" width="180" height="30" as="geometry" />
        </mxCell>
        
        <!-- Utils -->
        <mxCell id="utils" value="Utils" style="swimlane;horizontal=1;startSize=25;" vertex="1" parent="shared-layer">
          <mxGeometry x="250" y="220" width="200" height="180" as="geometry" />
        </mxCell>
        
        <mxCell id="validation" value="Validation" style="rounded=0;whiteSpace=wrap;html=1;" vertex="1" parent="utils">
          <mxGeometry x="10" y="35" width="180" height="30" as="geometry" />
        </mxCell>
        
        <mxCell id="property-discovery" value="PropertyDiscovery" style="rounded=0;whiteSpace=wrap;html=1;" vertex="1" parent="utils">
          <mxGeometry x="10" y="70" width="180" height="30" as="geometry" />
        </mxCell>
        
        <mxCell id="debug-utils" value="Debug Utilities" style="rounded=0;whiteSpace=wrap;html=1;" vertex="1" parent="utils">
          <mxGeometry x="10" y="105" width="180" height="30" as="geometry" />
        </mxCell>
        
        <mxCell id="position-utils" value="Position Utilities" style="rounded=0;whiteSpace=wrap;html=1;" vertex="1" parent="utils">
          <mxGeometry x="10" y="140" width="180" height="30" as="geometry" />
        </mxCell>
        
        <!-- Arrows -->
        <mxCell id="arrow1" style="edgeStyle=orthogonalEdgeStyle;rounded=0;orthogonalLoop=1;jettySize=auto;html=1;" edge="1" parent="1" source="main-client" target="client-controllers">
          <mxGeometry relative="1" as="geometry" />
        </mxCell>
        
        <mxCell id="arrow2" style="edgeStyle=orthogonalEdgeStyle;rounded=0;orthogonalLoop=1;jettySize=auto;html=1;" edge="1" parent="1" source="main-client" target="client-services">
          <mxGeometry relative="1" as="geometry" />
        </mxCell>
        
        <mxCell id="arrow3" style="edgeStyle=orthogonalEdgeStyle;rounded=0;orthogonalLoop=1;jettySize=auto;html=1;" edge="1" parent="1" source="client-services" target="remote-events">
          <mxGeometry relative="1" as="geometry" />
        </mxCell>
        
        <mxCell id="arrow4" style="edgeStyle=orthogonalEdgeStyle;rounded=0;orthogonalLoop=1;jettySize=auto;html=1;" edge="1" parent="1" source="remote-events" target="server-services">
          <mxGeometry relative="1" as="geometry" />
        </mxCell>
        
        <mxCell id="arrow5" style="edgeStyle=orthogonalEdgeStyle;rounded=0;orthogonalLoop=1;jettySize=auto;html=1;" edge="1" parent="1" source="main-server" target="server-services">
          <mxGeometry relative="1" as="geometry" />
        </mxCell>
        
        <mxCell id="arrow6" style="edgeStyle=orthogonalEdgeStyle;rounded=0;orthogonalLoop=1;jettySize=auto;html=1;" edge="1" parent="1" source="server-services" target="renderers">
          <mxGeometry relative="1" as="geometry" />
        </mxCell>
        
        <mxCell id="arrow7" style="edgeStyle=orthogonalEdgeStyle;rounded=0;orthogonalLoop=1;jettySize=auto;html=1;" edge="1" parent="1" source="renderers" target="makers">
          <mxGeometry relative="1" as="geometry" />
        </mxCell>
        
        <!-- Legend -->
        <mxCell id="legend" value="Legend" style="swimlane;horizontal=1;startSize=25;" vertex="1" parent="1">
          <mxGeometry x="1170" y="80" width="200" height="180" as="geometry" />
        </mxCell>
        
        <mxCell id="legend-entry" value="Entry Point" style="rounded=1;whiteSpace=wrap;html=1;fillColor=#fff2cc;strokeColor=#d6b656;" vertex="1" parent="legend">
          <mxGeometry x="10" y="35" width="100" height="25" as="geometry" />
        </mxCell>
        
        <mxCell id="legend-orphaned" value="Orphaned*" style="rounded=0;whiteSpace=wrap;html=1;fillColor=#f8cecc;strokeColor=#b85450;" vertex="1" parent="legend">
          <mxGeometry x="10" y="70" width="100" height="25" as="geometry" />
        </mxCell>
        
        <mxCell id="legend-base" value="Base Class" style="rounded=0;whiteSpace=wrap;html=1;fillColor=#d4e1f5;strokeColor=#6c8ebf;" vertex="1" parent="legend">
          <mxGeometry x="10" y="105" width="100" height="25" as="geometry" />
        </mxCell>
        
        <mxCell id="legend-remote" value="RemoteEvent" style="shape=cylinder3;whiteSpace=wrap;html=1;boundedLbl=1;backgroundOutline=1;size=10;fillColor=#e1d5e7;strokeColor=#9673a6;" vertex="1" parent="legend">
          <mxGeometry x="10" y="140" width="100" height="30" as="geometry" />
        </mxCell>
        
        <!-- Statistics -->
        <mxCell id="stats" value="Code Distribution&#xa;&#xa;Client: 17% (33 files)&#xa;Server: 7% (13 files)&#xa;Shared: 76% (145 files)&#xa;&#xa;Total: 191 files&#xa;61,073 lines of code" style="text;html=1;align=left;verticalAlign=top;whiteSpace=wrap;fontSize=12;" vertex="1" parent="1">
          <mxGeometry x="1170" y="280" width="200" height="150" as="geometry" />
        </mxCell>
      </root>
    </mxGraphModel>
  </diagram>
</mxfile>